HIERARCHY
ROOT Hips
{
	OFFSET 0.00000 0.00000 0.00000
	CHANNELS 6 Xposition Yposition Zposition Zrotation Yrotation Xrotation 
	JOINT LHipJoint
	{
		OFFSET 0 0 0
		CHANNELS 3 Zrotation Yrotation Xrotation
		JOINT LeftHip
		{
			OFFSET 1.37590 -1.78394 0.89329
			CHANNELS 3 Zrotation Yrotation Xrotation
			JOINT LeftKnee
			{
				OFFSET 2.47928 -6.81178 0.00000
				CHANNELS 3 Zrotation Yrotation Xrotation
				JOINT LeftAnkle
				{
					OFFSET 2.63345 -7.23535 0.00000
					CHANNELS 3 Zrotation Yrotation Xrotation
					JOINT LeftToe
					{
						OFFSET 0.23938 -0.65768 2.27012
						CHANNELS 3 Zrotation Yrotation Xrotation
						End Site
						{
							OFFSET 0.00000 -0.00000 1.18363
						}
					}
				}
			}
		}
	}
	JOINT RHipJoint
	{
		OFFSET 0 0 0
		CHANNELS 3 Zrotation Yrotation Xrotation
		JOINT RightHip
		{
			OFFSET -1.33617 -1.78394 0.89329
			CHANNELS 3 Zrotation Yrotation Xrotation
			JOINT RightKnee
			{
				OFFSET -2.56922 -7.05888 0.00000
				CHANNELS 3 Zrotation Yrotation Xrotation
				JOINT RightAnkle
				{
					OFFSET -2.56568 -7.04915 0.00000
					CHANNELS 3 Zrotation Yrotation Xrotation
					JOINT RightToe
					{
						OFFSET -0.27533 -0.75646 2.18105
						CHANNELS 3 Zrotation Yrotation Xrotation
						End Site
						{
							OFFSET -0.00000 -0.00000 1.15233
						}
					}
				}
			}
		}
	}
	JOINT lowerback
	{
		OFFSET 0 0 0
		CHANNELS 3 Zrotation Yrotation Xrotation
		JOINT Chest
		{
			OFFSET 0.06190 2.15152 -0.00935
			CHANNELS 3 Zrotation Yrotation Xrotation
			JOINT Chest2
			{
				OFFSET 0.06334 2.15332 0.00872
				CHANNELS 3 Zrotation Yrotation Xrotation
				JOINT lowerneck
				{
					OFFSET 0 0 0
					CHANNELS 3 Zrotation Yrotation Xrotation
					JOINT Neck
					{
						OFFSET -0.04202 1.66908 0.23524
						CHANNELS 3 Zrotation Yrotation Xrotation
						JOINT Head
						{
							OFFSET 0.07510 1.69357 -0.24440
							CHANNELS 3 Zrotation Yrotation Xrotation
							End Site
							{
								OFFSET 0.02556 1.71719 -0.11000
							}
						}
					}
				}
				JOINT LeftCollar
				{
					OFFSET 0 0 0
					CHANNELS 3 Zrotation Yrotation Xrotation
					JOINT LeftShoulder
					{
						OFFSET 3.67168 1.26306 -0.41342
CHANNELS 3 Zrotation Xrotation Yrotation
						JOINT LeftElbow
						{
OFFSET 0 -4.685100 -0.000000
CHANNELS 3 Zrotation Xrotation Yrotation
							JOINT LeftWrist
							{
OFFSET 0 -3.396260 -0.000000
CHANNELS 3 Zrotation Xrotation Yrotation
								JOINT lhand
								{
									OFFSET 0 0 0
CHANNELS 3 Zrotation Xrotation Yrotation
									JOINT LFingers
									{
OFFSET 0 -0.486080 -0.000000
CHANNELS 3 Zrotation Xrotation Yrotation
										End Site
										{
OFFSET 0 -0.391890 -0.000000
										}
									}
								}
								JOINT LThumb
								{
OFFSET 0 0.000000 0.000000
CHANNELS 3 Zrotation Xrotation Yrotation
									End Site
									{
OFFSET 0 -0.397870 0.397870
									}
								}
							}
						}
					}
				}
				JOINT RightCollar
				{
					OFFSET 0 0 0
					CHANNELS 3 Zrotation Yrotation Xrotation
					JOINT RightShoulder
					{
						OFFSET -3.04136 1.42992 -0.76390
CHANNELS 3 Zrotation Xrotation Yrotation
						JOINT RightElbow
						{
OFFSET 0 -5.555760 -0.000000
CHANNELS 3 Zrotation Xrotation Yrotation
							JOINT RightWrist
							{
OFFSET 0 -3.327740 -0.000000
CHANNELS 3 Zrotation Xrotation Yrotation
								JOINT rhand
								{
									OFFSET 0 0 0
CHANNELS 3 Zrotation Xrotation Yrotation
									JOINT RFingers
									{
OFFSET 0 -0.507630 -0.000000
CHANNELS 3 Zrotation Xrotation Yrotation
										End Site
										{
OFFSET 0 -0.409260 -0.000000
										}
									}
								}
								JOINT RThumb
								{
OFFSET 0 0.000000 0.000000
CHANNELS 3 Zrotation Xrotation Yrotation
									End Site
									{
OFFSET 0 -0.415510 0.415510
									}
								}
							}
						}
					}
				}
			}
		}
	}
}
MOTION
Frames: 16
Frame Time: .0083333
39.5489 17.8466 4.2671 -126.5750 -84.1645 139.3540 0.0000 0.0000 0.0000 -13.0903 -7.6742 -7.1850 0.2999 3.5211 9.7330 0.1390 5.5718 -11.1987 0.0292 -1.1030 -3.0323 0.0000 0.0000 0.0000 26.9840 9.8596 -8.6283 -0.5605 -4.7954 13.3260 -0.1028 -9.2059 -14.7998 -1.6834 -8.1729 23.2406 2.6694 -1.1875 -4.3804 0.9615 -1.7409 -3.1458 -0.5697 -0.9352 -0.8256 -11.8861 -9.4354 -15.0658 9.6502 -12.0889 14.9071 3.6245 -5.5836 8.4359 -0.0000 -0.0000 0.0000 2.5114 0.7512 -8.0855 15.2675 -24.5174 3.3361 13.4064 28.0127 -20.744 0.0 0.0 0.0 -7.1250 0.0 0.0 -15.1443 50.6322 2.1444 -0.0000 -0.0000 0.0000 -3.9774 1.6083 7.6736 -15.4162 -24.7228 -3.3981 -13.4593 18.3551 24.2202 0.0 0.0 0.0 7.1250 0.0 -0.0 16.6972 54.0192 -3.7827
39.5504 17.8466 4.2667 -126.5760 -84.1367 139.3600 0.0000 0.0000 0.0000 -13.0569 -7.6315 -7.2113 0.3000 3.5219 9.7354 0.1432 5.5374 -11.2449 0.0124 -0.7189 -1.9756 0.0000 0.0000 0.0000 27.0135 9.8779 -8.6360 -0.5611 -4.7980 13.3334 -0.1012 -9.2213 -14.7953 -1.6550 -8.1071 23.0398 2.5312 -1.2415 -4.5389 1.0416 -1.8141 -3.0094 -0.4196 -0.9644 -0.5919 -11.7956 -9.4483 -15.3523 9.4670 -12.0520 14.9165 3.5441 -5.5662 8.4666 -0.0000 -0.0000 0.0000 2.3266 0.5059 -7.6994 15.1594 -24.3677 3.2914 13.4984 28.2358 -20.6395 0.0 0.0 0.0 -7.1250 0.0 0.0 -15.0134 50.5445 2.0923 -0.0000 -0.0000 0.0000 -4.1299 1.3961 7.8378 -15.3586 -24.6433 -3.3741 -13.539 18.3455 24.4029 0.0 0.0 0.0 7.1250 0.0 -0.0 16.7125 54.2104 -3.8653
39.5498 17.8463 4.2670 -126.8080 -84.1138 139.5760 0.0000 0.0000 0.0000 -13.0616 -7.5966 -7.1772 0.2985 3.5128 9.7097 0.1572 5.5237 -11.4935 0.0081 -0.5797 -1.5931 0.0000 0.0000 0.0000 27.0180 9.8907 -8.6079 -0.5604 -4.7951 13.3250 -0.1018 -9.2066 -14.7868 -1.6541 -8.1049 23.0332 2.5301 -1.2413 -4.5365 1.0005 -1.8132 -2.9887 -0.4614 -0.9635 -0.5732 -11.8283 -9.4561 -15.3576 9.5146 -12.0683 14.9515 3.5623 -5.5713 8.4865 -0.0000 -0.0000 0.0000 2.3281 0.5739 -7.6 15.1325 -24.3304 3.2804 13.4198 28.2045 -20.6229 0.0 0.0 0.0 -7.1250 0.0 0.0 -15.0816 50.5158 2.0913 -0.0000 -0.0000 0.0000 -4.1036 1.376 7.7413 -15.2817 -24.5371 -3.3421 -13.5242 18.3881 24.1613 0.0 0.0 0.0 7.1250 0.0 -0.0 16.6029 53.9744 -3.742
39.5510 17.8461 4.2674 -126.8260 -84.0750 139.5980 0.0000 0.0000 0.0000 -13.0211 -7.5408 -7.2040 0.2988 3.5148 9.7155 0.1636 5.4760 -11.5651 0.0036 -0.3901 -1.0720 0.0000 0.0000 0.0000 27.0450 9.8665 -8.6298 -0.5609 -4.7969 13.3301 -0.1048 -9.1536 -14.7652 -1.6335 -8.0569 22.8869 2.5295 -1.2262 -4.5430 0.9822 -1.7930 -2.9748 -0.4795 -0.9531 -0.5554 -11.8347 -9.4927 -15.3856 9.4908 -12.1148 15.0098 3.5469 -5.5944 8.5150 0.0000 0.0000 0.0000 2.2992 0.5863 -7.5306 15.0633 -24.2342 3.2519 13.4087 28.2953 -20.7639 0.0 0.0 0.0 -7.1250 0.0 0.0 -15.1503 50.652 2.1528 0.0000 0.0000 0.0000 -4.1011 1.395 7.7287 -15.2550 -24.5002 -3.331 -13.9812 18.6877 24.8964 0.0 0.0 0.0 7.1250 0.0 -0.0 16.5305 54.7702 -4.0497
39.5514 17.8461 4.2673 -127.0870 -84.0297 139.8380 0.0000 0.0000 0.0000 -13.0029 -7.5000 -7.1718 0.2976 3.5075 9.6950 0.1640 5.4935 -11.5890 0.0029 -0.3481 -0.9565 0.0000 0.0000 0.0000 27.0696 9.8934 -8.6014 -0.5616 -4.8000 13.3389 -0.1048 -9.1394 -14.7476 -1.6336 -8.0572 22.8880 2.4949 -1.2009 -4.5402 0.9671 -1.7576 -2.9543 -0.4746 -0.9343 -0.5343 -11.8865 -9.5083 -15.2710 9.5481 -12.1442 14.9465 3.5740 -5.6103 8.4844 0.0000 -0.0000 0.0000 2.2538 0.5661 -7.3169 14.9515 -24.0785 3.2061 13.3354 28.4784 -20.6929 0.0 0.0 0.0 -7.1250 0.0 0.0 -15.1909 50.5709 2.128 0.0000 -0.0000 0.0000 -4.1141 1.3898 7.4873 -15.1565 -24.3636 -3.2902 -13.8013 18.7518 24.552 0.0 0.0 0.0 7.1250 0.0 -0.0 16.5291 54.4035 -3.8998
39.5527 17.8458 4.2673 -126.9800 -84.0439 139.7310 0.0000 0.0000 0.0000 -13.0044 -7.4888 -7.1956 0.2992 3.5174 9.7227 0.1707 5.4394 -11.6577 0.0015 -0.2536 -0.6967 0.0000 0.0000 0.0000 27.0623 9.8634 -8.6151 -0.5605 -4.7953 13.3258 -0.1025 -9.1431 -14.7169 -1.6238 -8.0342 22.8179 2.4899 -1.2135 -4.4662 0.9339 -1.7713 -2.9939 -0.5037 -0.9427 -0.6175 -11.9573 -9.5089 -15.2181 9.6153 -12.1511 14.9604 3.6084 -5.6135 8.4899 0.0000 0.0000 0.0000 2.2346 0.6367 -7.1274 14.8563 -23.9455 3.1674 13.3634 28.6012 -20.8298 0.0 0.0 0.0 -7.1250 0.0 0.0 -15.2209 50.7093 2.185 0.0000 0.0000 0.0000 -4.1137 1.503 7.4289 -15.1187 -24.3112 -3.2747 -13.7877 18.8152 24.5311 0.0 0.0 0.0 7.1250 0.0 -0.0 16.5317 54.3808 -3.8912
39.5536 17.8455 4.2669 -127.1740 -83.9716 139.9200 0.0000 0.0000 0.0000 -12.9457 -7.3864 -7.2135 0.2993 3.5174 9.7228 0.1769 5.3783 -11.7096 0.0004 -0.1302 -0.3576 0.0000 0.0000 0.0000 27.1154 9.8674 -8.6122 -0.5596 -4.7918 13.3156 -0.1004 -9.1183 -14.6539 -1.6075 -7.9957 22.7011 2.5125 -1.2039 -4.4259 0.9190 -1.7577 -3.0059 -0.5299 -0.9368 -0.6531 -11.9343 -9.5103 -15.2596 9.5652 -12.1470 15.0049 3.5869 -5.6131 8.5066 0.0000 -0.0000 0.0000 2.2117 0.7032 -6.9783 14.7778 -23.8356 3.1356 13.2892 28.6169 -20.6295 0.0 0.0 0.0 -7.1250 0.0 0.0 -15.2090 50.5016 2.1043 0.0000 -0.0000 0.0000 -4.1091 1.5203 7.3498 -15.0409 -24.203 -3.2427 -13.9005 18.9703 24.6147 0.0 0.0 0.0 7.1250 0.0 -0.0 16.4629 54.4828 -3.9158
39.5541 17.8452 4.2671 -127.1600 -83.9447 139.9000 0.0000 0.0000 0.0000 -12.9084 -7.3003 -7.2596 0.3014 3.5300 9.7580 0.1880 5.2802 -11.8156 0.0000 0.0207 0.0569 0.0000 0.0000 0.0000 27.1414 9.8693 -8.6326 -0.5611 -4.7978 13.3328 -0.0974 -9.1351 -14.6288 -1.5823 -7.9357 22.5188 2.5240 -1.1853 -4.4439 0.9193 -1.7334 -2.9394 -0.5368 -0.9227 -0.5743 -12.0804 -9.5382 -15.4707 9.6657 -12.1447 15.0135 3.6359 -5.6030 8.5630 0.0000 -0.0000 0.0000 2.1306 0.5795 -6.8036 14.6392 -23.6411 3.0798 13.4063 28.9592 -20.8289 0.0 0.0 0.0 -7.1250 0.0 0.0 -15.1796 50.7151 2.181 0.0000 -0.0000 0.0000 -4.0905 1.4596 7.1013 -15.0043 -24.1521 -3.2277 -13.6038 18.9635 24.2443 0.0 0.0 0.0 7.1250 0.0 -0.0 16.5663 54.0693 -3.7723
39.5555 17.8433 4.2669 -127.1600 -83.8977 139.9320 0.0000 0.0000 0.0000 -12.8408 -7.2028 -7.3332 0.3015 3.5304 9.7590 0.1953 5.1840 -11.8538 0.0001 0.0775 0.2129 0.0000 0.0000 0.0000 27.1690 9.8439 -8.7049 -0.5609 -4.7970 13.3304 -0.0925 -9.0849 -14.4904 -1.5811 -7.9328 22.5100 2.5315 -1.1729 -4.4708 0.8773 -1.7183 -2.9735 -0.5835 -0.9164 -0.5955 -11.9367 -9.5138 -15.2663 9.6127 -12.1536 14.9434 3.6022 -5.6121 8.4914 0.0000 0.0000 0.0000 2.1794 0.6949 -6.6621 14.5480 -23.5127 3.0433 13.4323 29.0107 -20.6425 0.0 0.0 0.0 -7.1250 0.0 0.0 -15.0777 50.537 2.0987 0.0000 0.0000 0.0000 -4.0862 1.5337 7.11 -14.9432 -24.0669 -3.2027 -13.7107 19.0224 24.433 0.0 0.0 0.0 7.1250 0.0 -0.0 16.5575 54.2715 -3.8529
39.5569 17.8427 4.2666 -126.8870 -83.8575 139.6590 0.0000 0.0000 0.0000 -12.7572 -7.1333 -7.3707 0.3033 3.5410 9.7888 0.2004 5.1204 -11.8842 0.0007 0.1670 0.4589 0.0000 0.0000 0.0000 27.2295 9.8164 -8.7440 -0.5628 -4.8051 13.3536 -0.0906 -9.0716 -14.4446 -1.5640 -7.8919 22.3863 2.5126 -1.1398 -4.4589 0.8821 -1.6728 -2.9505 -0.5665 -0.8927 -0.5764 -11.9065 -9.5329 -15.2717 9.6128 -12.1790 14.8737 3.5938 -5.6223 8.4699 0.0000 -0.0000 0.0000 2.1444 0.6688 -6.5738 14.4290 -23.3446 2.996 13.4388 29.1991 -20.5884 0.0 0.0 0.0 -7.1250 0.0 0.0 -15.0493 50.4851 2.0751 0.0000 -0.0000 0.0000 -4.1993 1.774 7.2911 -15.0333 -24.1925 -3.2396 -13.7203 18.697 24.6637 0.0 0.0 0.0 7.1250 0.0 -0.0 16.6683 54.496 -3.9722
39.5568 17.8414 4.2682 -126.9780 -83.7748 139.7490 0.0000 0.0000 0.0000 -12.6856 -7.0168 -7.3825 0.3026 3.5368 9.7769 0.2122 5.0259 -12.0039 0.0018 0.2719 0.7471 0.0000 0.0000 0.0000 27.2819 9.7628 -8.7970 -0.5666 -4.8208 13.3981 -0.0955 -8.9962 -14.4254 -1.5152 -7.7734 22.0278 2.6041 -1.1349 -4.4564 0.8594 -1.6694 -2.9466 -0.6407 -0.8923 -0.5773 -11.9182 -9.5192 -15.2897 9.6189 -12.1601 14.9105 3.5997 -5.6128 8.4844 0.0000 -0.0000 0.0000 2.1365 0.7174 -6.3677 14.3197 -23.1899 2.9528 13.3323 29.309 -20.6603 0.0 0.0 0.0 -7.1250 0.0 0.0 -15.1805 50.5386 2.1142 0.0000 -0.0000 0.0000 -4.1593 1.7258 7.153 -14.9469 -24.0721 -3.2043 -13.6383 18.8023 24.3494 0.0 0.0 0.0 7.1250 0.0 -0.0 16.5862 54.1772 -3.8212
39.5588 17.8395 4.2668 -127.0510 -83.7706 139.8690 0.0000 0.0000 0.0000 -12.6392 -6.8302 -7.5139 0.3023 3.5351 9.7722 0.2256 4.8155 -12.0450 0.0037 0.3937 1.0817 0.0000 0.0000 0.0000 27.2740 9.8163 -8.9099 -0.5756 -4.8584 13.5051 -0.0954 -9.0153 -14.4478 -1.4896 -7.7103 21.8375 2.6063 -1.1540 -4.4612 0.8315 -1.6952 -2.9778 -0.6711 -0.9064 -0.6084 -11.9693 -9.4960 -15.2548 9.6607 -12.1326 14.9432 3.6271 -5.6003 8.4924 -0.0000 -0.0000 0.0000 2.1286 0.8104 -6.149 14.2206 -23.0492 2.9139 13.4418 29.5253 -20.6356 0.0 0.0 0.0 -7.1250 0.0 0.0 -15.0658 50.5318 2.0951 -0.0000 -0.0000 0.0000 -4.0865 1.6376 7.0581 -14.8500 -23.9367 -3.1648 -13.6968 18.9845 24.6117 0.0 0.0 0.0 7.1250 0.0 -0.0 16.6643 54.4413 -3.9487
39.5600 17.8380 4.2658 -127.2420 -83.7213 140.0760 0.0000 0.0000 0.0000 -12.5915 -6.8040 -7.5698 0.3060 3.5566 9.8326 0.2321 4.7890 -12.1343 0.0037 0.3927 1.0792 0.0000 0.0000 0.0000 27.2956 9.8295 -9.0223 -0.5877 -4.9083 13.6471 -0.1046 -8.9500 -14.5088 -1.4730 -7.6692 21.7136 2.5942 -1.1340 -4.4468 0.8209 -1.6675 -2.9850 -0.6737 -0.8927 -0.6229 -11.9631 -9.4877 -15.2331 9.6683 -12.1231 14.9079 3.6311 -5.5958 8.4758 0.0000 0.0000 0.0000 2.105 0.8394 -5.9756 14.1079 -22.8888 2.8699 13.3939 29.6528 -20.5216 0.0 0.0 0.0 -7.1250 0.0 0.0 -15.0648 50.4126 2.0501 0.0000 0.0000 0.0000 -4.0862 1.6546 6.8334 -14.7824 -23.8421 -3.1374 -13.4857 19.0739 24.4413 0.0 0.0 0.0 7.1250 0.0 -0.0 16.7855 54.2375 -3.8941
39.5634 17.8356 4.2635 -127.1810 -83.7188 140.0870 0.0000 0.0000 0.0000 -12.5364 -6.7423 -7.7333 0.3115 3.5880 9.9204 0.2419 4.6643 -12.1921 0.0056 0.4812 1.3221 0.0000 0.0000 0.0000 27.2926 9.8711 -9.2183 -0.6047 -4.9776 13.8447 -0.1129 -8.9140 -14.5909 -1.4662 -7.6523 21.6630 2.5717 -1.1437 -4.4391 0.8076 -1.6795 -3.0234 -0.6744 -0.8997 -0.6668 -11.9103 -9.4856 -15.2944 9.5849 -12.1143 14.9774 3.5937 -5.5936 8.4996 -0.0000 0.0000 0.0000 2.0864 0.8879 -5.7176 13.9927 -22.7243 2.8253 13.3132 29.8139 -20.5498 0.0 0.0 0.0 -7.1250 0.0 0.0 -15.1533 50.4274 2.0682 -0.0000 0.0000 0.0000 -4.0803 1.6878 6.7392 -14.7290 -23.7673 -3.1159 -13.5317 19.1677 24.3722 0.0 0.0 0.0 7.1250 0.0 -0.0 16.7038 54.1793 -3.8504
39.5636 17.8328 4.2619 -127.7840 -83.7005 140.7020 0.0000 0.0000 0.0000 -12.5459 -6.6264 -7.7856 0.3124 3.5933 9.9352 0.2512 4.5750 -12.2722 0.0060 0.5022 1.3800 0.0000 0.0000 0.0000 27.2509 9.8924 -9.3667 -0.6259 -5.0626 14.0873 -0.1256 -8.8318 -14.6839 -1.4280 -7.5561 21.3738 2.5078 -1.1310 -4.4240 0.7803 -1.6595 -3.0230 -0.6656 -0.8889 -0.6730 -11.9290 -9.4511 -15.2769 9.6612 -12.0724 14.9017 3.6297 -5.5692 8.4729 0.0000 0.0000 0.0000 2.0849 0.9194 -5.5484 13.8812 -22.5647 2.7824 13.3678 29.9708 -20.5176 0.0 0.0 0.0 -7.1250 0.0 0.0 -15.0880 50.4046 2.0504 0.0000 0.0000 0.0000 -4.0688 1.7016 6.6399 -14.6926 -23.7161 -3.1012 -13.6774 19.3268 24.4594 0.0 0.0 0.0 7.1250 0.0 -0.0 16.6041 54.2907 -3.8721
39.5670 17.8297 4.2592 -128.0000 -83.7165 140.9770 0.0000 0.0000 0.0000 -12.5301 -6.5447 -7.9369 0.3170 3.6193 10.0081 0.2606 4.4127 -12.2940 0.0073 0.5515 1.5155 0.0000 0.0000 0.0000 27.2078 9.9477 -9.6073 -0.6528 -5.1682 14.3890 -0.1431 -8.7531 -14.8521 -1.4164 -7.5267 21.2855 2.4498 -1.1414 -4.3868 0.7574 -1.6702 -3.0652 -0.6554 -0.8950 -0.7364 -11.8715 -9.4218 -15.3164 9.6054 -12.0288 14.9065 3.6072 -5.5490 8.4688 0.0000 0.0000 0.0000 2.0757 1.0124 -5.3605 13.7915 -22.4358 2.748 13.3791 30.1489 -20.6307 0.0 0.0 0.0 -7.1250 0.0 0.0 -15.1236 50.5169 2.0978 0.0000 0.0000 0.0000 -4.0556 1.7423 6.5871 -14.6633 -23.675 -3.0895 -13.7201 19.3986 24.619 0.0 0.0 0.0 7.1250 0.0 -0.0 16.6451 54.4528 -3.9486
